<svg id="圖層_1" data-name="圖層 1" xmlns="http://www.w3.org/2000/svg" viewBox="0 0 100 100"><defs><style>.cls-1{fill:#bdab8b;}.cls-2{fill:#ac9c7f;}.cls-3{fill:#93866d;opacity:0.5;}</style></defs><path class="cls-1" d="M50.1,72.48a41.36,41.36,0,0,0,15.62-3A25,25,0,0,1,36,70.68c-.65-.44-1.27-.92-1.87-1.41A41.27,41.27,0,0,0,50.1,72.48Z"/><path class="cls-1" d="M75,50a22.75,22.75,0,0,1-.14,2.62,23.82,23.82,0,0,1-.51,3.06,24.86,24.86,0,0,1-3.46,8.06c-.28.42-.57.83-.87,1.24a41.54,41.54,0,0,1-40,0c-.25-.34-.5-.68-.74-1a24.26,24.26,0,0,1-2.33-4.32,24.91,24.91,0,0,1-1.29-4c-.15-.63-.27-1.27-.36-1.91A24.81,24.81,0,0,1,25,50c0-.26,0-.51,0-.76A24.45,24.45,0,0,1,25.5,45c.09-.47.2-.94.33-1.4A24.44,24.44,0,0,1,29,36.37a25.62,25.62,0,0,1,1.51-2.08,25,25,0,0,1,39.29.5,25.89,25.89,0,0,1,1.59,2.33,24.65,24.65,0,0,1,2.75,6.53c.09.32.16.64.23,1a23.69,23.69,0,0,1,.58,4.8C75,49.6,75,49.8,75,50Z"/><path class="cls-2" d="M70,65a25.23,25.23,0,0,1-4.3,4.46,41.61,41.61,0,0,1-31.64-.17A24.81,24.81,0,0,1,30,65a41.54,41.54,0,0,0,40,0Z"/><path class="cls-2" d="M74.35,55.68A25.56,25.56,0,0,1,73,59.86a62.88,62.88,0,0,1-46.06-.24,24.91,24.91,0,0,1-1.29-4,62.52,62.52,0,0,0,24.47,5A62.35,62.35,0,0,0,74.35,55.68Z"/><path class="cls-2" d="M75,49.41a103.7,103.7,0,0,1-24.64,3A103.77,103.77,0,0,1,25,49.24,24.45,24.45,0,0,1,25.5,45c.09-.47.2-.94.33-1.4a103.74,103.74,0,0,0,24.26,2.86,103.29,103.29,0,0,0,24.09-2.82c.09.32.16.64.23,1A23.69,23.69,0,0,1,75,49.41Z"/><path class="cls-2" d="M71.43,37.12Q62.61,38,53.58,38A187.9,187.9,0,0,1,29,36.37a25.62,25.62,0,0,1,1.51-2.08,25,25,0,0,1,39.29.5A25.89,25.89,0,0,1,71.43,37.12Z"/><path class="cls-3" d="M75,50A25,25,0,0,1,36,70.68c-.49-.34-1-.69-1.43-1.06a25,25,0,0,0,28.5-41A25,25,0,0,1,75,50Z"/></svg>