<svg id="圖層_1" data-name="圖層 1" xmlns="http://www.w3.org/2000/svg" viewBox="0 0 100 100"><defs><style>.cls-1{fill:#c6e6f7;}.cls-2{fill:#a5dbf7;}.cls-3{fill:#f0faff;}</style></defs><path class="cls-1" d="M75,50A25,25,0,0,1,36,70.68c-.49-.34-1-.69-1.43-1.06l-.18-.13a25.2,25.2,0,0,1-5-5.47A25,25,0,0,1,45.45,25.41,26.31,26.31,0,0,1,48.92,25L50,25a24.84,24.84,0,0,1,10,2.08,25.59,25.59,0,0,1,3,1.58l.82.52.29.2.21.14.51.37h0l.51.39.17.13.17.14.35.28.27.23.17.15.49.44.24.23.39.38.39.4c.11.1.21.21.31.32l.3.33.28.32.25.29c.11.14.23.27.33.41l.28.35L70,35l.27.36c.08.12.17.24.25.37l.26.37.24.37.47.76.23.39L72,38c.14.26.28.54.42.81l.15.3c.09.18.17.37.26.55l.16.38.18.41.17.42c0,.14.1.29.16.43l.15.43.15.43c0,.14.09.29.14.43s.06.23.1.34a1.21,1.21,0,0,0,0,.18c0,.12.07.24.1.36s.08.3.11.45.09.34.13.52,0,.24.07.36.07.31.1.47.06.3.08.46.07.42.1.64.05.31.06.46.06.43.08.65,0,.39.05.59,0,.22,0,.33c0,.36,0,.72,0,1.08C75,49.68,75,49.84,75,50Z"/><path class="cls-2" d="M75,50A25,25,0,0,1,36,70.68c-.49-.34-1-.69-1.43-1.06a25,25,0,0,0,28.5-41A25,25,0,0,1,75,50Z"/><path class="cls-3" d="M72,38.09c.22.41.44.82.64,1.25,6.17-.82,10.42-.82,11.53.15-.51,1.21-4.09,3.13-9.69,5.34a231.47,231.47,0,0,1-24,7.66,233.7,233.7,0,0,1-24.26,5.26c-6.14.92-10.35,1.06-11.41.25.48-1.43,4.3-3.6,10.27-6,0-.47-.06-.93-.07-1.4C14.75,54.67,8.07,58.72,7.76,61.39c1.51,1.84,9.17,1.74,20,0a240.2,240.2,0,0,0,23.73-5.14A238.42,238.42,0,0,0,75,48.78c10-3.87,16.59-7.54,17-9.86C90.37,36.78,82.73,36.58,72,38.09Z"/></svg>