<svg id="圖層_1" data-name="圖層 1" xmlns="http://www.w3.org/2000/svg" xmlns:xlink="http://www.w3.org/1999/xlink" viewBox="0 0 100 100"><defs><style>.cls-1{fill:none;}.cls-2{clip-path:url(#clip-path);}.cls-3{fill:#91a4a5;}.cls-4{fill:#869799;}.cls-5{fill:#728183;opacity:0.5;}</style><clipPath id="clip-path"><rect class="cls-1" width="100" height="100"/></clipPath></defs><g class="cls-2"><path class="cls-3" d="M75,49.52V50a24.94,24.94,0,0,1-.26,3.58c-.07.51-.16,1-.27,1.52s-.22,1-.36,1.5A25,25,0,0,1,36.38,71L36,70.68c-.49-.34-1-.69-1.43-1.06l-.17-.13c-.41-.33-.82-.68-1.21-1A24.94,24.94,0,0,1,29.3,64a24.63,24.63,0,0,1-2.82-5.53,25,25,0,0,1-1.34-11.11,24.45,24.45,0,0,1,1.8-7.05,25.11,25.11,0,0,1,5.39-8c.36-.36.73-.71,1.11-1a24.93,24.93,0,0,1,12-5.86A26.35,26.35,0,0,1,48.92,25L50,25a24.74,24.74,0,0,1,5,.5h0a24.26,24.26,0,0,1,5,1.58,25.59,25.59,0,0,1,3,1.58c.28.17.56.34.83.52l.29.2.2.14.52.37h0l.51.39.17.13.17.14.34.28.27.23.18.15.49.44.23.23a4.68,4.68,0,0,1,.39.38c.14.13.27.26.4.4l.3.32.3.33.29.32.24.29.34.41.28.35L70,35l.26.36.26.37c.08.12.17.24.25.37s.17.24.25.37l.47.76.22.39L72,38c.15.26.29.54.43.81l.14.3c.09.18.18.37.26.55l.17.38c.06.13.12.27.17.41s.09.2.12.3a.61.61,0,0,1,0,.12c.06.14.11.29.16.43s.11.28.16.43.09.28.14.43.1.29.14.43L74,43a1.21,1.21,0,0,1,0,.18c0,.12.07.24.1.36l.12.45.12.52c0,.12,0,.24.08.36l.09.47.09.46c0,.21.07.42.1.64l.06.46c0,.22,0,.43.07.65s0,.39.05.59l0,.33C75,48.8,75,49.16,75,49.52Z"/><path class="cls-4" d="M73.25,40.79a10.16,10.16,0,0,1-3.38-.06c-3.81,0-7.76-1.83-11.94-2.41a25.18,25.18,0,0,0-12.47,1.17,50.79,50.79,0,0,0-10.14,5.19c-2.68,1.67-4.47,2.74-5.9,2.78a12.66,12.66,0,0,1-4.28-.08,24.45,24.45,0,0,1,1.8-7.05A14.87,14.87,0,0,0,28.67,40c1.73-.17,4-1.81,7.37-4.36s7.79-5.85,12.69-8A32.06,32.06,0,0,1,55,25.5h0a24.26,24.26,0,0,1,5,1.58,25.59,25.59,0,0,1,3,1.58c.28.17.56.34.83.52l.29.2.2.14.52.37h0l.51.39.17.13.17.14.34.28.27.23.18.15.49.44.23.23a4.68,4.68,0,0,1,.39.38c.14.13.27.26.4.4l.3.32.3.33.29.32.24.29.34.41.28.35L70,35l.26.36.26.37c.08.12.17.24.25.37s.17.24.25.37l.47.76.22.39L72,38c.15.26.29.54.43.81l.14.3c.09.18.18.37.26.55l.17.38c.06.13.12.27.17.41S73.22,40.69,73.25,40.79Z"/><path class="cls-4" d="M74.11,56.6A25,25,0,0,1,36.38,71a57.68,57.68,0,0,0,8.69-1.14c10.78-2.31,13-9.1,25.39-12.9a11.56,11.56,0,0,1,3.13-.33Z"/><path class="cls-4" d="M44.16,67.59c.06-.22-.92-1.11-1.12-1.84s.32-1.28-.09-2.07A3.46,3.46,0,0,0,41.15,62a2.52,2.52,0,0,0-2.32.06,1.67,1.67,0,0,0-.53,2,4.28,4.28,0,0,0,1.93,2.16A14.33,14.33,0,0,0,43,67.46C43.69,67.71,44.1,67.82,44.16,67.59Z"/><path class="cls-4" d="M37.32,68.3c-.07.39-1.23.22-2.79.19l-1.39,0A24.94,24.94,0,0,1,29.3,64a24.63,24.63,0,0,1-2.82-5.53,5.45,5.45,0,0,1,2.7-.06c2.11.41,4,1.35,4.71,2.71s.22,3,.84,4.27S37.46,68,37.32,68.3Z"/><path class="cls-4" d="M47.08,48.5c0,.5.07.9-.68.9S45,49,45,48.5a1,1,0,1,1,2,0Z"/><path class="cls-4" d="M56,40.41c0,.49-.37.47-1.12.47s-1.14-.9-1.14-1.39,1,.12,1.72.12S56,39.91,56,40.41Z"/><path class="cls-4" d="M64.74,52.4c.09.88-.93.64-1.62,0-.35-.33-.11-.36-.11-1s.74-.62,1.22-.62S64.68,51.81,64.74,52.4Z"/><path class="cls-4" d="M33.83,50.88c0,.49.07.89-.68.89s-1.35-.4-1.35-.89a1,1,0,1,1,2,0Z"/><path class="cls-4" d="M34.06,32.07c0,.5-.37.47-1.12.47a.94.94,0,0,1-.61-.23c.36-.36.73-.71,1.11-1h.08C34.27,31.28,34.06,31.58,34.06,32.07Z"/><path class="cls-4" d="M61.67,58.14c.09.88-.93.64-1.62,0-.35-.33-.11-.36-.11-1s.74-.63,1.22-.63S61.61,57.55,61.67,58.14Z"/><path class="cls-4" d="M46,28.39c0,.33-.09.35-.59.35s-.48-.19-.48-.52-.1-.51.4-.51A.63.63,0,0,1,46,28.39Z"/><path class="cls-4" d="M51.08,57.56c.29.32.1.46-.25.78s-1.07-.1-1.36-.42.54-.33.89-.65S50.79,57.23,51.08,57.56Z"/><path class="cls-4" d="M72.16,45.87c0,.44,0,.35-.49.37s-.51-.09-.53-.53.38-.73.65-.34S72.14,45.44,72.16,45.87Z"/><path class="cls-4" d="M74.74,53.58c-.07.51-.16,1-.27,1.52-.5.44-.91,0-.92-.82,0-.48.22-.1.65-.51A.54.54,0,0,1,74.74,53.58Z"/><path class="cls-5" d="M75,50A25,25,0,0,1,36,70.68c-.49-.34-1-.69-1.43-1.06a25,25,0,0,0,28.5-41A25,25,0,0,1,75,50Z"/></g></svg>