<svg id="圖層_1" data-name="圖層 1" xmlns="http://www.w3.org/2000/svg" viewBox="0 0 100 100"><defs><style>.cls-1{fill:#e8d2a2;}.cls-2{fill:#e8c57b;}.cls-3{fill:#907b4d;opacity:0.3;}.cls-4{fill:#a9905b;}.cls-5{fill:#bfa367;}</style></defs><path class="cls-1" d="M61.44,27.77c-4.77.69-15.29,1.46-22.47,3.49a39.9,39.9,0,0,1-7,1.44,24.78,24.78,0,0,1,6.48-4.87c1.83-.29,3.88-.55,6.12-.76,5.18-.5,9.9-.76,13.39-.77q1,.35,2,.78C60.48,27.29,61,27.52,61.44,27.77Z"/><path class="cls-2" d="M74.46,44.83a231.47,231.47,0,0,1-24,7.66,233.7,233.7,0,0,1-24.26,5.26,27.07,27.07,0,0,1-.77-3A25.09,25.09,0,0,1,25.08,52c0-.47-.06-.93-.07-1.4,0-.19,0-.38,0-.58v-.22c0-.62,0-1.23.09-1.84s.08-.92.14-1.38a23.25,23.25,0,0,1,.45-2.38,23.91,23.91,0,0,1,.71-2.41A25,25,0,0,1,58,26.3q1,.35,2,.78c.49.21,1,.44,1.45.69a25.24,25.24,0,0,1,10.07,9.48c.14.25.29.5.43.76l0,.08c.22.41.44.82.64,1.25l0,0c.12.25.23.5.34.76A24.75,24.75,0,0,1,74.46,44.83Z"/><path class="cls-2" d="M75,50c0,.28,0,.55,0,.82a28,28,0,0,1-.29,3.08l0,.31a25.19,25.19,0,0,1-.82,3.35A25,25,0,0,1,36,70.67l-.27-.18c-.59-.41-1.16-.85-1.71-1.31l-.54-.47a24.64,24.64,0,0,1-4.66-5.51c-.36-.57-.7-1.17-1-1.78l-.25-.49a25.19,25.19,0,0,1-1.29-3.18,233.7,233.7,0,0,0,24.26-5.26,231.47,231.47,0,0,0,24-7.66,24.15,24.15,0,0,1,.4,2.55c0,.46.09.93.11,1.4S75,49.59,75,50Z"/><path class="cls-1" d="M73,40.15c-3.36,2.29-13.05,5.28-24.7,7.45s-19.8,1.76-23.19.34c0-.47.08-.92.14-1.38a23.25,23.25,0,0,1,.45-2.38,23.91,23.91,0,0,1,.71-2.41c2.26-.87,6-1.3,12.12-.7C50.08,42.21,66.05,38.32,71.94,38l0,.08c.22.41.44.82.64,1.25l0,0C72.76,39.64,72.87,39.89,73,40.15Z"/><path class="cls-1" d="M73.83,57.56a24.83,24.83,0,0,1-3.38,6.82c-1.26.13-2.66.22-4.21.29-10.12.4-23.58,4.29-30.56,5.82-.59-.41-1.16-.85-1.71-1.31l-.54-.47c4-2.18,12.76-5.25,23.06-8A93.76,93.76,0,0,1,73.83,57.56Z"/><path class="cls-3" d="M75,50A25,25,0,0,1,36,70.68c-.49-.34-1-.69-1.43-1.05a25,25,0,0,0,28.5-41A25,25,0,0,1,75,50Z"/><path class="cls-4" d="M91.94,38.92c-.63,3.83-18.16,11.41-40.45,17.36S10.22,64.4,7.76,61.39a1.54,1.54,0,0,0,0,.57C8.92,66.16,28.73,64.53,52,58.3S93.32,43.64,92.2,39.44A1.5,1.5,0,0,0,91.94,38.92Z"/><path class="cls-5" d="M72,38.09c.22.41.44.82.64,1.25,6.17-.82,10.42-.82,11.53.15-.51,1.21-4.09,3.13-9.69,5.34a231.47,231.47,0,0,1-24,7.66,233.7,233.7,0,0,1-24.26,5.26c-6.14.92-10.35,1.06-11.41.25.48-1.43,4.3-3.6,10.27-6,0-.47-.06-.93-.07-1.4C14.75,54.67,8.07,58.72,7.76,61.39c1.51,1.84,9.17,1.74,20,0a240.2,240.2,0,0,0,23.73-5.14A238.42,238.42,0,0,0,75,48.78c10-3.87,16.59-7.54,17-9.86C90.37,36.78,82.73,36.58,72,38.09Z"/></svg>