<svg id="圖層_1" data-name="圖層 1" xmlns="http://www.w3.org/2000/svg" viewBox="0 0 100 100"><defs><style>.cls-1{fill:#e07237;}.cls-2{fill:#a04021;}.cls-3{fill:#bb4021;}.cls-4{fill:#9c361b;opacity:0.3;}</style></defs><path class="cls-1" d="M75,50A25,25,0,0,1,36,70.68c-.49-.34-1-.69-1.43-1.06l-.18-.13a25.2,25.2,0,0,1-5-5.47A25,25,0,0,1,45.45,25.41,26.31,26.31,0,0,1,48.92,25L50,25a24.84,24.84,0,0,1,10,2.08,25.59,25.59,0,0,1,3,1.58l.82.52.29.2.21.14.51.37h0l.51.39.17.13.17.14.35.28.27.23.17.15.49.44.24.23.39.38.39.4c.11.1.21.21.31.32l.3.33.28.32.25.29c.11.14.23.27.33.41l.28.35L70,35l.27.36c.08.12.17.24.25.37l.26.37.24.37.47.76.23.39L72,38c.14.26.28.54.42.81l.15.3c.09.18.17.37.26.55l.16.38.18.41.17.42c0,.14.1.29.16.43l.15.43.15.43c0,.14.09.29.14.43s.06.23.1.34a1.21,1.21,0,0,0,0,.18c0,.12.07.24.1.36s.08.3.11.45.09.34.13.52,0,.24.07.36.07.31.1.47.06.3.08.46.07.42.1.64.05.31.06.46.06.43.08.65,0,.39.05.59,0,.22,0,.33c0,.36,0,.72,0,1.08C75,49.68,75,49.84,75,50Z"/><path class="cls-2" d="M61.74,37.92c-1.37,2.61-1.05,6.1.17,6.12a2.65,2.65,0,0,0,.58-.06,2.5,2.5,0,0,1-1.52.47c-1.22,0-1.54-3.51-.18-6.12a4.18,4.18,0,0,1,2.62-2.46A5.08,5.08,0,0,0,61.74,37.92Z"/><path class="cls-3" d="M68.92,40.4a3,3,0,0,1-1.06,1.12,2.54,2.54,0,0,1-2.16.37,2.88,2.88,0,0,0-.69-.17.83.83,0,0,0-.75.17A10.08,10.08,0,0,1,62.49,44a2.65,2.65,0,0,1-.58.06c-1.22,0-1.54-3.51-.17-6.12a5.08,5.08,0,0,1,1.67-2.05,8,8,0,0,1,2.41-.1l.54-.44a4.51,4.51,0,0,1,1.88-1.13.82.82,0,0,1,.51.09C70.21,35.05,70.84,36.75,68.92,40.4Z"/><path class="cls-2" d="M61.67,63.2c0,4.86-5.15,6.06-7.16,3.84-.83-.9-.73-1.19-.39-1.35l.31.36c2,2.22,7.16,1,7.16-3.83v-.06A6.56,6.56,0,0,1,61.67,63.2Z"/><path class="cls-3" d="M61.59,62.16v.06c0,4.86-5.15,6-7.16,3.83l-.31-.36c.49-.24,1.53-.19.91-1.45a11.56,11.56,0,0,0-1.88-2.45c-.65-.72-.8-1.3-.61-1.74.47-1.1,3-1.4,5-.94C60.06,59.66,61.28,60.38,61.59,62.16Z"/><path class="cls-3" d="M53.27,50.46C54,52,51.77,53,50.92,52c-1.09-1.2-2-1.14-1-3.12.63-1.28,1,.26,2.33-.26S52.78,49.48,53.27,50.46Z"/><path class="cls-2" d="M39.53,51a4.11,4.11,0,0,1-4.24-.25c-3.19-1.92-5.13-2.37-4.05-7.24.87-3.92,3.43-6.7,6.67-7.14A9.09,9.09,0,0,0,33,43c-1.08,4.88.85,5.33,4,7.24A4.59,4.59,0,0,0,39.53,51Z"/><path class="cls-3" d="M42.32,44.56c.17,3-1,5.43-2.79,6.43A4.59,4.59,0,0,1,37,50.26c-3.2-1.91-5.13-2.36-4-7.24a9.09,9.09,0,0,1,4.95-6.66,6.8,6.8,0,0,1,2.49.11C44.78,37.44,42.1,40.73,42.32,44.56Z"/><path class="cls-3" d="M47.86,28c-.68,1.61-2.52.11-2.36-1.16a5.64,5.64,0,0,0,0-1.39A26.31,26.31,0,0,1,48.92,25a4,4,0,0,0,.48.29C50.53,25.9,48.29,27,47.86,28Z"/><path class="cls-3" d="M34.93,68.85a1.08,1.08,0,0,1-.59.64,25.2,25.2,0,0,1-5-5.47,1.11,1.11,0,0,1,0-.26c.34-2.68.77-1.93,4.31-2.84,2.3-.59.92,1.63,1.61,3.27C36.22,66.54,35.64,67.17,34.93,68.85Z"/><path class="cls-4" d="M75,50A25,25,0,0,1,36,70.68c-.49-.34-1-.69-1.43-1.06a25,25,0,0,0,28.5-41A25,25,0,0,1,75,50Z"/></svg>