<svg id="圖層_1" data-name="圖層 1" xmlns="http://www.w3.org/2000/svg" viewBox="0 0 100 100"><defs><style>.cls-1{fill:#005085;}.cls-2{fill:#003c54;opacity:0.5;}.cls-3{fill:#008027;}</style></defs><path class="cls-1" d="M75,49.52V50c0,.42,0,.85,0,1.27s0,.67-.08,1,0,.43-.07.65q-.1,1-.3,2c-.06.31-.13.62-.21.92l0,.2v0c-.17.68-.37,1.36-.59,2l-.36,1c-.13.33-.26.66-.4,1-.28.64-.58,1.26-.91,1.87-.14.26-.29.52-.44.78a.89.89,0,0,1-.09.16l-.39.63a24.56,24.56,0,0,1-4.9,5.61l-.8.65-.84.63-.08.06-.74.5a17.73,17.73,0,0,1-1.61,1l-.5.27c-.2.11-.41.22-.62.31s-.46.23-.69.33-.5.23-.76.33a20.94,20.94,0,0,1-2.34.83,8.37,8.37,0,0,1-.82.23l-.24.07c-.3.08-.6.15-.9.2l-.3.07c-.38.08-.75.14-1.13.2s-.67.1-1,.13l-.5,0c-.22,0-.44,0-.65,0a5.07,5.07,0,0,1-.55,0c-.37,0-.73,0-1.1,0a24.92,24.92,0,0,1-14-4.32c-.49-.34-1-.69-1.43-1.06l-.17-.13-.48-.4a24.66,24.66,0,0,1-4.47-4.93L29.3,64a23.71,23.71,0,0,1-1.59-2.71,24.59,24.59,0,0,1-2.08-5.72q-.19-.86-.33-1.74A24.4,24.4,0,0,1,25,50v-.09a23.27,23.27,0,0,1,.3-3.76c0-.2.06-.4.1-.6a25.21,25.21,0,0,1,3.73-9.32l.06-.09a24.36,24.36,0,0,1,3.91-4.56,24.72,24.72,0,0,1,2.1-1.73c.26-.2.54-.39.81-.57a23.44,23.44,0,0,1,2.91-1.69h0a25.52,25.52,0,0,1,2.74-1.15,24.46,24.46,0,0,1,3.8-1A26.35,26.35,0,0,1,48.92,25L50,25a24.33,24.33,0,0,1,8.3,1.43c.15,0,.29.1.43.15.42.15.85.32,1.26.5a25.59,25.59,0,0,1,3,1.58l.83.52.15.1.14.1a24.72,24.72,0,0,1,3.48,2.89c.14.13.27.26.4.4a3,3,0,0,1,.3.32l.3.33a25.34,25.34,0,0,1,2.52,3.31c.11.19.22.38.34.56a25.75,25.75,0,0,1,2,4.17l.15.41,0,.1a24.94,24.94,0,0,1,1,4l0,.19s0,.07,0,.11,0,.17,0,.26l0,.26,0,.2c0,.13,0,.26,0,.39,0,.28.06.56.08.85l0,.33c0,.19,0,.38,0,.57s0,.18,0,.28A1.77,1.77,0,0,1,75,49.52Z"/><path class="cls-2" d="M75,50c0,.42,0,.85,0,1.27s0,.67-.08,1,0,.43-.07.65q-.1,1-.3,2c-.06.31-.13.62-.21.92l0,.2v0a20.24,20.24,0,0,1-.58,2l-.36,1c-.13.33-.26.66-.4,1A19,19,0,0,1,72,61.87c-.14.26-.29.52-.44.78a.89.89,0,0,1-.09.16l-.39.63a24.56,24.56,0,0,1-4.9,5.61l-.8.65-.84.63-.08.06-.74.5a17.73,17.73,0,0,1-1.61,1l-.5.27c-.2.11-.41.22-.62.31s-.46.23-.69.33-.5.23-.76.33a20.94,20.94,0,0,1-2.34.83,8.37,8.37,0,0,1-.82.23l-.24.07c-.3.08-.6.15-.9.2l-.3.07c-.38.08-.75.14-1.13.2s-.67.1-1,.13l-.5,0c-.22,0-.44,0-.65,0a5.07,5.07,0,0,1-.55,0c-.37,0-.73,0-1.1,0a24.92,24.92,0,0,1-14-4.32c-.49-.34-1-.69-1.43-1.06a25,25,0,0,0,28.5-41l.83.52.29.2a24.72,24.72,0,0,1,3.48,2.89c.14.13.27.26.4.4a3,3,0,0,1,.3.32l.3.33a25.34,25.34,0,0,1,2.52,3.31c.11.19.22.38.34.56a25.75,25.75,0,0,1,2,4.17l.18.51a24.94,24.94,0,0,1,1,4l.12.82c0,.19,0,.39.07.59s.06.56.08.85,0,.6,0,.9c0,.09,0,.18,0,.28S75,49.76,75,50Z"/><path class="cls-3" d="M73.65,41.87a4.34,4.34,0,0,1-1.74.83c-5.09,1.31-15.55-2.21-18.61-1C39.48,47.48,35.66,32.5,38.92,27.59h0a25.52,25.52,0,0,1,2.74-1.15,24.46,24.46,0,0,1,3.8-1A26.35,26.35,0,0,1,48.92,25L50,25a24.33,24.33,0,0,1,8.3,1.43c.15,0,.29.1.43.15.42.15.85.32,1.26.5a25.59,25.59,0,0,1,3,1.58l.83.52.15.1.14.1a24.72,24.72,0,0,1,3.48,2.89c.14.13.27.26.4.4a3,3,0,0,1,.3.32l.3.33a25.34,25.34,0,0,1,2.52,3.31c.11.19.22.38.34.56a25.75,25.75,0,0,1,2,4.17l.15.41Z"/><path class="cls-3" d="M61.81,61.09c2.8,3.37-6.18.2-8.14,1-7.15,3-4.34-4.27-1.77-5.31,2.8-1.12,2.92-4,7.4-1C64.42,59.37,60.42,59.41,61.81,61.09Z"/><path class="cls-3" d="M35.2,29.85a5.51,5.51,0,0,1-1.14,3.43c-4.66,6.37-5,12.6-5.39,15.81-.47,3.41-1.58,5.45-3,6.5q-.19-.86-.33-1.74A24.4,24.4,0,0,1,25,50v-.09a23.27,23.27,0,0,1,.3-3.76c0-.2.06-.4.1-.6a25.21,25.21,0,0,1,3.73-9.32l.06-.09a24.36,24.36,0,0,1,3.91-4.56A24.72,24.72,0,0,1,35.2,29.85Z"/></svg>