<svg viewBox="0 0 100 100" xmlns="http://www.w3.org/2000/svg"><path d="m75 49.52v.48a21.49 21.49 0 0 1 -.11 2.28q0 .44-.09.87c0 .23-.06.47-.1.7q-.15 1-.39 1.95v.2a24.79 24.79 0 0 1 -8.88 13.7l-.17.12-.71.54-.12.08a25 25 0 0 1 -28.43.24l-.34-.24-.11-.08c-.24-.18-.48-.35-.71-.54a1.77 1.77 0 0 1 -.17-.12l-.1-.08-.17-.13-.48-.4a24.66 24.66 0 0 1 -4.47-4.93l-.15-.16c-.43-.63-.82-1.27-1.18-1.93-.14-.26-.28-.52-.41-.78-.34-.67-.66-1.36-.94-2.07a23.85 23.85 0 0 1 -1.47-5.39 23.33 23.33 0 0 1 -.3-3.35c0-.16 0-.32 0-.48v-.09a23.27 23.27 0 0 1 .3-3.76c0-.2.06-.4.1-.6a25 25 0 0 1 2.06-6.36 24.48 24.48 0 0 1 1.67-3l.06-.09a23.38 23.38 0 0 1 2.81-3.47q.52-.54 1.08-1.05a23.91 23.91 0 0 1 2.92-2.3 25.09 25.09 0 0 1 9.45-3.87 26.35 26.35 0 0 1 3.47-.41h1.08a24.33 24.33 0 0 1 8.3 1.43c.15 0 .29.1.43.15.42.15.85.32 1.26.5a25.59 25.59 0 0 1 3 1.58c.28.17.56.34.83.52l.15.1.14.1.2.14.52.37.51.39.17.13.17.14.34.28.27.23.18.15.4.36.09.08.23.23a4.68 4.68 0 0 1 .39.38l.36.36.3.32.3.33.29.32.24.29.34.41.28.35.31.36.26.36.26.37c.08.12.17.24.25.37l.06.09c.06.09.13.18.19.28l.47.76.22.39.29.38c.15.26.29.54.43.81l.14.3s0 0 0 0c.08.17.17.34.24.51l.17.38c.06.13.12.27.17.41s.12.28.17.42.11.29.16.43.11.28.16.43.09.28.14.43.1.29.14.43l.08.45a1.21 1.21 0 0 1 0 .18c0 .12.07.24.1.36l.12.45.12.52c0 .12 0 .24.08.36l.09.47.09.46.06.38v.26l.06.46c0 .22 0 .43.07.65s0 .39.05.59v.33c.16.33.16.69.16 1.05z" fill="#6f73fa"/><g fill="#5c5fe6"><path d="m74.8 53.15c0 .23-.06.47-.1.7q-.15 1-.39 1.95v.2h-19.25a1.43 1.43 0 0 1 0-2.85z"/><path d="m39.43 62.74a1.43 1.43 0 0 1 -1.43 1.42h-18.6l9.9-.16c-.43-.63-.82-1.27-1.18-1.93-.14-.26-.28-.52-.41-.78h10.29a1.43 1.43 0 0 1 1.43 1.45z"/><path d="m34.52 60.67a1.38 1.38 0 0 1 -.16.64 1.42 1.42 0 0 1 -1.27.78h-5c-.14-.26-.28-.52-.41-.78-.34-.67-.66-1.36-.94-2.07h6.32a1.43 1.43 0 0 1 1.46 1.43z"/><path d="m34 48.06a1.77 1.77 0 0 1 -1.64 2.42h-17.36c0-.16 0-.32 0-.48v-.09a23.27 23.27 0 0 1 .3-3.76c0-.2.06-.4.1-.6a23.57 23.57 0 0 1 1-3.65h6a1.78 1.78 0 0 1 1.77 1.77 1.68 1.68 0 0 1 -.23.86 2.19 2.19 0 0 1 -.29.39 1.59 1.59 0 0 1 -.24.2 1.75 1.75 0 0 1 -1 .31h7.59a1.71 1.71 0 0 0 -.23.87 1.74 1.74 0 0 0 .13.64h1.51a1.76 1.76 0 0 1 1.12.4 1.78 1.78 0 0 1 1.47.72z"/><path d="m65.21 69.82-.71.54-.12.08a25 25 0 0 1 -28.38.24l-.34-.24-.11-.08c-.24-.18-.48-.35-.71-.54 4.6-.26 9.76-.41 15.21-.41s10.56.15 15.16.41z"/><path d="m68 32.63c-5.67.13-11.71.2-18 .2s-12.31-.07-18-.2q.52-.54 1.08-1.05a23.91 23.91 0 0 1 2.92-2.3 25.09 25.09 0 0 1 9.45-3.87 26.35 26.35 0 0 1 3.47-.41h1.08a24.33 24.33 0 0 1 8.3 1.43c.15 0 .29.1.43.15-5.6.06-9.94.5-9.94 1s5.08 1.05 11.33 1.05h2.84.06c.28.17.56.34.83.52l.15.1.14.1.2.14.52.37.51.39.17.13.17.14.34.28.27.23.18.15.4.36.09.08.23.23a4.68 4.68 0 0 1 .39.38z"/></g><path d="m75 50a25 25 0 0 1 -39 20.68c-.49-.34-1-.69-1.43-1.06a25 25 0 0 0 28.5-41 25 25 0 0 1 11.93 21.38z" fill="#454d92" opacity=".5"/></svg>